<?xml version="1.0" standalone="no"?>
<!DOCTYPE svg PUBLIC "-//W3C//DTD SVG 20010904//EN"
 "http://www.w3.org/TR/2001/REC-SVG-20010904/DTD/svg10.dtd">
<svg version="1.0" xmlns="http://www.w3.org/2000/svg"
 width="700.000000pt" height="700.000000pt" viewBox="0 0 700.000000 700.000000"
 preserveAspectRatio="xMidYMid meet">
<metadata>
Created by potrace 1.14, written by Peter Selinger 2001-2017
</metadata>
<g transform="translate(0.000000,700.000000) scale(0.100000,-0.100000)"
fill="#000000" stroke="none">
<path d="M1669 6706 c-2 -2 -28 -7 -58 -11 -359 -45 -666 -355 -727 -735 -4
-25 -8 -1125 -8 -2445 -1 -2432 -1 -2450 34 -2590 31 -124 133 -292 237 -391
46 -43 184 -144 198 -144 3 0 30 -11 60 -25 29 -14 90 -35 136 -48 l84 -22
1860 0 c1023 0 1878 3 1900 7 241 43 431 160 573 353 86 116 141 259 160 410
3 28 6 925 6 1995 0 1891 0 1947 -19 2000 -18 52 -64 100 -814 853 l-796 797
-1411 0 c-776 0 -1413 -2 -1415 -4z m2115 -587 c3 -3 6 -219 6 -479 2 -419 4
-485 20 -560 72 -336 310 -589 635 -675 101 -26 149 -29 612 -30 259 0 475 -3
478 -7 3 -3 6 -734 6 -1624 -1 -1806 4 -1677 -71 -1765 -41 -48 -102 -84 -165
-97 -22 -4 -845 -7 -1830 -7 l-1790 1 -46 21 c-88 40 -154 120 -174 211 -4 19
-7 1102 -7 2408 l1 2374 27 60 c41 91 119 153 213 169 43 8 2077 8 2085 0z
m1120 -644 l515 -515 -127 0 c-590 -2 -666 -1 -718 16 -87 27 -169 115 -190
205 -10 42 -12 809 -2 809 4 0 239 -232 522 -515z"/>
<path d="M2939 3906 c-2 -2 -26 -6 -54 -10 -216 -26 -468 -152 -636 -318 -367
-363 -457 -902 -229 -1358 179 -354 520 -590 925 -636 76 -8 1394 -9 1455 0
177 25 323 94 453 215 322 301 332 822 22 1136 -108 110 -211 173 -350 213
-90 27 -136 32 -271 32 l-112 0 -26 58 c-131 290 -391 518 -701 616 -120 38
-226 54 -356 55 -64 0 -118 -2 -120 -3z"/>
</g>
</svg>
